<?xml version="1.0" standalone="no"?><!DOCTYPE svg PUBLIC "-//W3C//DTD SVG 1.1//EN" "http://www.w3.org/Graphics/SVG/1.1/DTD/svg11.dtd"><svg t="1696132015481" class="icon" viewBox="0 0 1024 1024" version="1.1" xmlns="http://www.w3.org/2000/svg" p-id="31372" xmlns:xlink="http://www.w3.org/1999/xlink" width="200" height="200"><path d="M69.8 1024H0c0-282.8 229.2-512 512-512s512 229.2 512 512h-69.8c0-244.2-198-442.2-442.2-442.2S69.8 779.8 69.8 1024z" fill="#5F95FF" p-id="31373"></path><path d="M512 488.7c115.7 0 209.5-93.8 209.5-209.5S627.7 69.8 512 69.8s-209.5 93.8-209.5 209.5S396.3 488.7 512 488.7z m0 69.8c-154.2 0-279.3-125-279.3-279.3S357.8 0 512 0s279.3 125 279.3 279.3S666.2 558.5 512 558.5zM349.1 279.3c0-12.9 10.4-23.3 23.3-23.3s23.3 10.4 23.3 23.3c0 64.3 52.1 116.4 116.4 116.4 21.4 0 42-5.8 59.9-16.6 11-6.6 25.3-3.1 31.9 7.9 6.6 11 3.1 25.3-7.9 31.9-25.1 15.1-53.9 23.2-83.9 23.2-90.1 0.1-163-72.9-163-162.8z m317.6 51c-4 12.2-17.2 18.8-29.4 14.8s-18.8-17.2-14.8-29.4c0.6-1.8 1.1-3.6 1.6-5.4 3.4-12.4 16.2-19.7 28.6-16.2 12.4 3.4 19.7 16.2 16.2 28.6-0.6 2.6-1.3 5.1-2.2 7.6z" fill="#5F95FF" p-id="31374"></path><path d="M791.3 1024c0-205.7-166.7-372.4-372.4-372.4S46.5 818.3 46.5 1024" fill="#CAF8FF" p-id="31375"></path></svg>